<svg xmlns="http://www.w3.org/2000/svg" viewBox="0 0 512 512">
  <g fill="#010F1B" fill-rule="evenodd">
    <path fill-rule="nonzero" d="M255 66a189 189 0 1 1 0 378 189 189 0 0 1 0-378Zm129.7 59.3a183.4 183.4 0 1 0-259.4 259.4 183.4 183.4 0 0 0 259.4-259.4Z"/>
    <path fill-rule="nonzero" d="M256 6c69 0 131.5 28 176.8 73.2A249.2 249.2 0 0 1 506 256c0 69-28 131.5-73.2 176.8A249.2 249.2 0 0 1 256 506c-69 0-131.5-28-176.8-73.2A249.2 249.2 0 0 1 6 256c0-69 28-131.5 73.2-176.8A249.2 249.2 0 0 1 256 6Zm172.8 77.2A243.6 243.6 0 0 0 256 11.6 243.6 243.6 0 0 0 83.2 83.2 243.6 243.6 0 0 0 11.6 256c0 67.5 27.4 128.6 71.6 172.8A243.6 243.6 0 0 0 256 500.4c67.5 0 128.6-27.4 172.8-71.6A243.6 243.6 0 0 0 500.4 256c0-67.5-27.4-128.6-71.6-172.8Z"/>
    <path fill-rule="nonzero" d="M107.7 393.5a25 25 0 0 1 4 5.3 17 17 0 0 1 2 5.2l-6 2.1a18 18 0 0 0-4.4-8.4 9.5 9.5 0 0 0-2-1.7c-.5-.3-1-.4-1.6-.5-.4 0-.8.2-1.1.5-.5.5-.6 1.1-.5 1.7a70.3 70.3 0 0 0 2.5 5c.7 1 1.2 2 1.7 3s.9 2 1.1 3.2a7 7 0 0 1-.1 3.2 7 7 0 0 1-2 3.2 7.8 7.8 0 0 1-4.2 2.2c-1.8.2-3.5 0-5.2-.7-1.8-.8-3.7-2.1-5.6-4a23.4 23.4 0 0 1-3.2-4.3 17 17 0 0 1-2-4.6l5.8-2.3c.4 1.3 1 2.6 1.6 3.9.6 1 1.4 2.1 2.3 3 .5.7 1.2 1.2 2 1.7.5.3 1 .4 1.6.4a2 2 0 0 0 1.2-.6c.5-.4.6-1 .5-1.6a83.4 83.4 0 0 0-2.6-5c-.6-.9-1.2-1.9-1.7-3-.5-1-.9-2-1.1-3.1a7 7 0 0 1 .1-3.3 7 7 0 0 1 2-3 7.8 7.8 0 0 1 4.2-2.2c1.7-.3 3.5 0 5.1.7 1.9.7 3.7 2 5.6 4ZM77 384l-7.3-10.6 4.8-3.3 7.3 10.5L77 384Zm8.6-6.7-8.2-11.9 5-3.4L95 380.2 72.4 396 60 378.2l5-3.4 7.9 11.4 12.7-9Zm-12.5-34a17 17 0 0 1 2 5.9 14.1 14.1 0 0 1-2.7 10.6 15.2 15.2 0 0 1-10.1 5.6 13.9 13.9 0 0 1-10.5-3.3 17 17 0 0 1-3.8-4.8c-1.2-2-2-4.3-2.2-6.6-.2-2.2.1-4.3 1-6.3l6.3 2.1a10 10 0 0 0-.7 3.8 8.6 8.6 0 0 0 3 6c.8.6 1.7 1 2.6 1.3 1 .3 2 .3 3 .2a9.4 9.4 0 0 0 5.6-3.2c.6-.7 1.1-1.6 1.4-2.6.3-1 .4-2 .2-2.9a8.5 8.5 0 0 0-3.4-5.7c-1.1-.7-2.3-1.2-3.6-1.4l1.5-6.5c2.2.3 4.1 1.2 5.9 2.5 1.8 1.4 3.4 3.2 4.5 5.3Zm-11.2-28.1c1 4 .8 7.3-.8 10-1.5 2.9-4.3 4.8-8.2 5.9l-14.8 4-2-7.5 14.5-4c2.3-.6 3.8-1.5 4.5-2.7a5 5 0 0 0 .5-4.1 4.9 4.9 0 0 0-2.5-3.3c-1.2-.6-3-.6-5.3 0l-14.5 4-2-7.4 14.7-4c4-1.2 7.3-.9 10.1.7s4.7 4.4 5.8 8.3ZM56.4 295l-27.3 4.3-1.9-12.5a16 16 0 0 1 .2-6.6 9.6 9.6 0 0 1 2.8-4.8c1.5-1.2 3.3-2 5.2-2.3 3.8-.7 7.7 1 9.6 4.3 1.2 2 2 4 2.2 6.3l1.3 8.2-3.8-3 10.5-1.6 1.2 7.8Zm-2.6-16.9-8.9 8.4-1.3-8.3 8.9-8.3 1.3 8.2Zm-8.2 10.7-3 4-1.3-7.7c-.2-1.6-.7-2.8-1.6-3.5-.8-.7-2-1-3-.7-1.2.1-2.2.7-2.9 1.7-.5.9-.7 2.1-.4 3.7l1.2 7.8-4.1-3 15-2.3Zm7.3-25.4-27.5 1.3-.4-7.8 27.6-1.3.3 7.8Zm.3-21.8-21.4-1-.4 8.6-6.1-.3 1-24.8 6.2.3-.4 8.4 21.4 1-.3 7.8Zm2.6-21.7-27.2-4.5 1.3-7.7 27.2 4.5-1.3 7.7Zm-11-28.5 4.3-12 5.5 2-4.4 12-5.5-2Zm10.3 3.3 5-13.6 5.7 2-7.6 21-26-9.6 7.5-20.4 5.6 2.1-4.8 13.1 14.6 5.4ZM72.8 168a25 25 0 0 1-3.9 5.3 17 17 0 0 1-4.3 3.5l-3.9-5a18.1 18.1 0 0 0 6.8-6.8l1-2.4c.1-.5.1-1.1 0-1.6-.2-.5-.5-.8-.8-1-.6-.3-1.3-.3-1.8 0a57.9 57.9 0 0 0-4 3.9c-.7 1-1.5 1.7-2.3 2.5-.8.8-1.8 1.5-2.7 2a7 7 0 0 1-3.2.9 7 7 0 0 1-3.6-1c-1.4-.7-2.5-2-3.3-3.3-.7-1.6-1-3.4-.9-5.2.2-2 1-4.2 2.2-6.5.9-1.6 2-3.1 3.1-4.4a17 17 0 0 1 3.8-3.3l4 4.9c-1.2.8-2.3 1.7-3.3 2.7-1 .9-1.7 1.9-2.3 3l-1 2.5a3 3 0 0 0 .2 1.6c.1.4.5.8.9 1 .5.3 1.1.3 1.6 0l1.9-1.6a130.6 130.6 0 0 0 4.4-5c.8-.7 1.7-1.4 2.7-2a7 7 0 0 1 6.7.2c1.4.8 2.5 2 3.3 3.4a9.4 9.4 0 0 1 .9 5.1c-.2 2-1 4.2-2.2 6.6ZM84 145l-13.8-26.9 4.8-6 29.2 7.8-5.1 6.4-24.5-7.5 2-2.4 12.4 22.4-5 6.2Zm0-8.6-3.2-5.2 8.5-10.5 5.7 2-11 13.7Zm23.4-20-19-20.2 4.7-4.4 23.7 3-2.2 2-12.6-13.4 5.5-5.2 19 20-4.7 4.5-23.7-3 2.2-2 12.7 13.4-5.6 5.3Zm25.5-23.1-15-23.2 11-7.2a18 18 0 0 1 7.6-3c2.5-.3 5 .1 7.2 1.1 4.6 2.4 7.7 7.1 8 12.3a13 13 0 0 1-2 7 18.1 18.1 0 0 1-5.8 5.8l-11 7.2Zm3.2-9.5 4.1-2.7a9 9 0 0 0 3-3c.7-1.1 1-2.4.9-3.7a9 9 0 0 0-4.5-6.9 6.5 6.5 0 0 0-3.7-.7 9 9 0 0 0-3.9 1.5l-4.1 2.7 8.2 12.8Zm36.4-31.9 11.8-4.8 2.3 5.4-12 4.8-2.1-5.4Zm4.6 10 13.4-5.5 2.3 5.5-20.6 8.4-10.4-25.6 20-8.2 2.3 5.6-12.9 5.3 6 14.4Zm19.5-.9 8-19 1.2 5.4-15-13.4 8.5-2 9.7 8.7-3.7 1 4.7-12.2 8.3-1.9-7.7 18.3-1.3-5.4L225 54.4l-8.8 2-9.8-9.3 3.4-.8-4.6 12.7-8.7 2Zm46.5-7.3c-2 .2-4 0-6-.6a14 14 0 0 1-8.6-6.9 15.2 15.2 0 0 1-.8-11.5 14 14 0 0 1 7.4-8.1 17 17 0 0 1 6-1.5c2.3-.2 4.6 0 6.8.8 2 .7 3.9 2 5.3 3.5l-4.6 4.8c-.9-.9-2-1.6-3-2.1a8.5 8.5 0 0 0-6.7.2c-1 .4-1.7 1-2.4 1.8-.6.7-1 1.6-1.3 2.6-.7 2.1-.5 4.4.4 6.4.5 1 1 1.7 1.8 2.4.7.7 1.6 1.2 2.5 1.4a8.5 8.5 0 0 0 6.7-.7c1-.7 2-1.6 2.7-2.7l5.3 4.2a13.5 13.5 0 0 1-4.7 4.2c-2.1 1-4.4 1.7-6.8 1.8Zm38.4-27 7.8.5-2 27.6-7.9-.6 2.1-27.6Zm-12.7 26.7-7.8-.6 2.1-27.6 7.8.6-2 27.6Zm12-10-11.7-.8.5-6.5 11.7 1-.5 6.4ZM292 55.7 311 32l7.4 2 4.5 30-7.8-2.2-3-25.5 3 .8-15.4 20.5-7.7-2v-.1Zm7.8-3.5 3.5-5 13 3.6.4 6-16.9-4.6ZM327.4 66 339 41l5.8 2.6 6.1 23.1-2.7-1.2 7.7-16.8 7 3.2L351.2 77l-5.9-2.7-6.1-23.1 2.7 1.2-7.6 16.8-7-3.2Zm42 23.5A17.2 17.2 0 0 1 365 85a14.1 14.1 0 0 1-2.3-10.7c.9-4 3.2-7.4 6.6-9.5a13.7 13.7 0 0 1 10.9-1.7c2 .6 4 1.5 5.6 2.7 2 1.3 3.7 3 5 5 1.2 1.8 2 3.9 2.1 6l-6.6 1A10 10 0 0 0 385 74c-.7-1.1-1.6-2-2.6-2.7a9 9 0 0 0-3-1.4 6.8 6.8 0 0 0-5.7 1 9.4 9.4 0 0 0-3.6 5.3 7.1 7.1 0 0 0 1 5.7c.6 1 1.3 1.7 2.2 2.3a10.3 10.3 0 0 0 7 1.8l.5 7a21.8 21.8 0 0 1-11.5-3.7Zm6.4-1.1 6-8.6 5.6 4L381 93l-5-4.8Zm26 4.7 9.4 8.9-4 4.2-9.3-8.8 4-4.3Zm-7 8.4 10.5 9.9-4.1 4.4-16.1-15.3 19-20 15.6 14.8-4.1 4.4-10.1-9.6-10.7 11.4Zm25.3 38.8c-1.2-1.7-2-3.6-2.5-5.6a14.2 14.2 0 0 1 1.7-10.8c2.3-3.4 5.7-5.7 9.6-6.5 3.8-.7 7.6.1 10.7 2.4a17 17 0 0 1 4.3 4.4c1.3 2 2.3 4.1 2.7 6.4.4 2.1.3 4.3-.4 6.4l-6.5-1.6c.4-1.3.5-2.6.3-3.8a8.5 8.5 0 0 0-3.5-5.7c-.8-.6-1.7-1-2.7-1.1-1-.2-2-.2-3 0-2 .6-4 1.9-5.3 3.7-.5.8-1 1.7-1.2 2.7-.2 1-.1 2 0 3a8.5 8.5 0 0 0 4 5.3c1.2.6 2.4 1 3.7 1.1l-1 6.7c-2-.2-4.1-1-6-2-2-1.3-3.6-3-5-5h.1Zm16 26.8c-1-1.8-1.7-3.8-2-5.9a14.6 14.6 0 0 1 3-10.7c2.4-3 6-5 10-5.4a13.8 13.8 0 0 1 10.5 3.6c3.1 2.8 5.1 6.6 5.8 10.8a14.4 14.4 0 0 1-3 10.7A14 14 0 0 1 440 172c-1.5-1.4-2.8-3.1-3.8-5Zm5.7-3c.5.9 1.1 1.7 1.9 2.3.7.6 1.6 1 2.5 1.4 1 .2 2 .3 3 .2 1-.2 2.1-.5 3-1 1-.6 2-1.3 2.7-2.1.6-.8 1.1-1.6 1.4-2.6.3-.9.4-1.9.3-2.8-.2-2-1.2-3.9-2.8-5.2-.7-.6-1.6-1-2.5-1.3-1-.3-2-.4-3-.3a9.5 9.5 0 0 0-5.6 3.1c-.7.8-1.2 1.6-1.5 2.6-.3.9-.4 1.9-.3 2.8.1 1 .4 2 1 2.9Zm3.7 23 26.7-7.3 1.7 6.2-15.1 16-1-3.2 21.1 5.8 1.7 6.2L454 218l-1.9-7 16-4.4.4 1.2-15.7-4.4-.9-3.3 11.2-12 .4 1.5-16 4.4-2-7Zm9.6 39.2 27.5-2 .5 6.3-17.9 12.9-.2-3.4 19.5 9.7.5 6.4-27.5 2.2-.6-7.2 16.7-1.3v1.2l-14.5-7.3-.2-3.4 13.3-9.6v1.4l-16.6 1.3-.5-7.2Zm1.5 40.2 27.5 2.6-.7 7.8-27.5-2.6.7-7.8ZM453 292a25 25 0 0 1 1.9-6.3 17 17 0 0 1 3-4.7l5.3 3.5a18 18 0 0 0-4.2 8.5c-.2.9-.2 1.8-.2 2.6 0 .6.3 1.1.6 1.6.2.3.6.6 1 .6.7.1 1.3-.1 1.7-.6.5-.6 1-1.3 1.2-2l1.2-3 1.5-3.1c.5-1 1.1-2 1.9-2.8a7 7 0 0 1 2.6-1.9 7 7 0 0 1 3.8-.2c1.6.2 3 1 4.2 2a9.4 9.4 0 0 1 2.5 4.6c.5 2 .5 4.3.1 7-.3 1.7-.8 3.5-1.5 5.1-.6 1.6-1.5 3-2.5 4.3l-5.3-3.3c.8-1.1 1.6-2.3 2.2-3.6a14 14 0 0 0 1.1-3.6c.2-.9.2-1.8.1-2.6a3 3 0 0 0-.6-1.6 2 2 0 0 0-1.2-.6c-.6-.1-1.2.1-1.6.6-.5.6-.9 1.3-1.2 2a125.2 125.2 0 0 0-2.6 6.1c-.5 1-1.2 2-2 2.8-.6.8-1.6 1.5-2.6 1.9a7 7 0 0 1-3.7.2c-1.5-.3-3-1-4.1-2a9.4 9.4 0 0 1-2.6-4.6c-.5-2-.5-4.3 0-7Zm-7 27.1c.8-2 1.7-4 3-5.9 1-1.5 2.3-3 3.7-4l4.6 4.2a18.1 18.1 0 0 0-5.5 7.8c-.3.8-.5 1.7-.6 2.5 0 .6 0 1.1.3 1.7.2.3.5.6 1 .8.5.2 1.2 0 1.6-.4.6-.5 1.2-1 1.6-1.8l1.7-2.6c.6-1 1.2-2 2-3 .6-.8 1.4-1.6 2.3-2.3a6.6 6.6 0 0 1 6.7-1c1.5.5 2.8 1.4 3.8 2.7 1 1.5 1.6 3.2 1.7 5 .2 2-.2 4.2-1 6.8-.7 1.7-1.5 3.3-2.4 4.8a17 17 0 0 1-3.2 3.9l-4.7-4.2c1-1 2-2 2.8-3.2.7-1 1.3-2.1 1.7-3.3.3-.9.5-1.7.5-2.6a3 3 0 0 0-.3-1.6 2 2 0 0 0-1.1-.9c-.6-.2-1.2 0-1.6.4-.6.5-1.2 1.1-1.6 1.8l-1.7 2.7c-.5 1-1.2 2-1.9 2.9-.7.9-1.4 1.7-2.3 2.4a7 7 0 0 1-6.6 1 7.8 7.8 0 0 1-3.8-2.8 9.4 9.4 0 0 1-1.7-4.9c-.2-2 .2-4.2 1-6.8Zm-6.1 17.4 25 11.6-3.2 7-25-11.5 3.2-7.1Zm-14.4 26.2a17 17 0 0 1 4.2-4.6 14.5 14.5 0 0 1 10.7-2.7c4 .7 7.4 3 9.6 6.3a14 14 0 0 1 2 10.9c-1 4-3.3 7.7-6.7 10.3a14.3 14.3 0 0 1-10.7 2.6 14 14 0 0 1-11.5-17.1c.4-2 1.2-4 2.4-5.8Zm5.4 3.5c-.6.8-1 1.8-1.1 2.8-.2.9-.2 1.9 0 2.8.2 1 .7 1.9 1.2 2.7 1.4 1.8 3.3 3 5.5 3.6 1 .2 2 .2 3 0 .9-.2 1.8-.6 2.6-1.1 1.6-1.2 2.7-3 3.1-5 .2-1 .2-1.9 0-2.8-.2-1-.7-2-1.2-2.7a9.5 9.5 0 0 0-5.5-3.6c-1-.2-2-.2-3 0-.9.2-1.8.6-2.6 1.1-.8.6-1.5 1.3-2 2.2ZM413.4 381l20.9 18-4.2 5-23.9-.5 2-2.3 14 12-5 5.8-21-18 4.2-5 23.9.5-2 2.3-14-12 5-5.8ZM165 469.7l9-26.7 6 2.1 8.6 22.9-3-1 6-17.8 7.3 2.5-9 26.7-6-2.1-8.5-22.8 2.8 1-6 17.8-7.2-2.6Zm32.9 10.7L204 453l7.6 1.8-6.2 27.5-7.6-1.8Zm29.2 6.2c-2-.3-4-1-5.9-2a14 14 0 0 1-7-8.6c-1-4-.4-8.2 1.6-11.7a14 14 0 0 1 9-6.6c4.4-1 9-.2 13 2 1.9 1.1 3.5 2.6 4.6 4.5L237 468c-.7-1.1-1.7-2-2.7-2.8-1.1-.6-2.3-1-3.6-1.2a8.9 8.9 0 0 0-3.3.1c-1 .2-1.9.6-2.6 1.3-.8.6-1.5 1.4-2 2.3-1 2-1.3 4.3-.8 6.5.2 1 .7 2 1.3 2.8.6.8 1.3 1.4 2.2 2 1 .5 2 .8 3 1a10.2 10.2 0 0 0 7.1-1.7l3.7 6.1c-1.9 1-3.8 1.6-5.8 2-2 .3-4.2.3-6.2 0Zm5.3-4 1.4-10.6 6.8 1-1.5 11.5-6.7-2Zm20.8-12 12.9-.3v5.9l-12.8.3v-6Zm.8 11 14.5-.3.1 6.2-22.2.5-.6-28.2 21.7-.5.1 6.2-14 .3.4 15.9Zm21.6 5.5-3.6-28 12.6-1.6c2.2-.4 4.4-.2 6.6.4a9.6 9.6 0 0 1 6.9 8.3 9.4 9.4 0 0 1-4.6 9.7 16 16 0 0 1-6.3 2.1l-8.2 1.1 3-3.7 1.4 10.7-7.8 1Zm17-2.2-8.2-9.3 8.3-1.1 8.2 9.3-8.3 1.1Zm-10.5-8.7-4-3.2 7.8-1c1.7-.2 2.8-.8 3.5-1.6 1.4-1.9 1-4.6-.8-6-.8-.6-2-.8-3.7-.6l-7.8 1 3-4 2 15.4Zm25 5.8-6.3-27.5 7.7-1.8 6.2 27.5-7.6 1.8Zm12.3-3 2.9-30.7 7.3-2.5 20.4 22.8-7.7 2.7-16.7-20 3-1-1.6 26.2-7.6 2.5Zm4.7-7.3v-6.3l13-4.3 3.7 5-16.7 5.6Z"/>
    <path d="m129.2 429 6.7 5.5 7.3-4.6-3.2 8 6.7 5.5-8.7-.5-3.1 8.1-2.2-8.4-8.7-.5 7.3-4.7zM373.4 429l6.7 5.5 7.4-4.6-3.2 8 6.7 5.5-8.7-.5-3.2 8.1-2.1-8.4-8.7-.5 7.3-4.7zM221.5 311.7c-4 10.3-12.2 17.3-21.7 17.3-9.6 0-17.8-7-21.8-17.3h43.5ZM332.7 310.6c-3.9 10-12 17-21.2 17-9.3 0-17.4-7-21.3-17h42.5Z"/>
    <path d="M290 303.6h43l-19.5-60.4H323.6v-6.5h-51.1c.5 1 2.7.2 2.7 1.6 0 7.5-9.1 3.6-7.3 2 1-1 1.6-2.2 1.8-3.6h-.8c-.4 2.2-3.1 4.8-4.9 3-2.2-2.2-3.5.6-1.8-3h-1.5l-1 2.4c-2 1.2-2.6-1.5-3.5-1.5-.7 0-1 2.6-3.4 1l-.1-1.9h-1.3l.1.2c1 1.9-3.9 2.2-5.8-.2h-.7l1.2 1.6c-.2.4-.3.3-.4.7-2.7 0-3 1.5-5.6.3-2-1-2.6-1.8-2.5-2.6h-.2c.1 1.8.7 3.5 2.4 3.6 0 3-1.4.4-2.8 1.7-2.8 2.7-8.5-5-2.4-5v-.3h-46v6.5H198.4l-19 60.4h43l-19.5-60.4h3.3l15 21.8h30.3v6.8h-16.2v5.4h10.6v11.2h3.6v47.9h-15.6l-5.5 9.8H284l-5.6-9.8h-15.6v-47.9h3.7v-11.2H277v-5.4H261V265h34.6l12-17.6-17.6 56.2ZM186.8 299h28L201 256.2l-14.2 42.7Zm29.8-52.4 10.8 12.9h61.9l10.8-13h-83.5Zm80.9 52.4h28l-13.9-42.7-14.1 42.7ZM301.4 353.4l-90.4.2-14.3 21.5h119zM194.5 379.7h123.4v6.3H194.5z"/>
    <path d="M188.5 232.6h135.2v11.1H188.5z"/>
    <path d="m249.6 228.8.8 1.6.8 3.2 2.4-.6 3 1.1 3.4-.6 2.3-1.3 4.5 1.4 5.2.1.9.7h1.7l.2-2.1-3.1-3.6-1.6-.6-2.2.9-1.8-.6-.9-5.7.1-3.4-2.1-1.6-.7 1.4-2.5 9-8.4-1z"/>
    <path d="m231.8 233.2-.8-4.9 1.6-1.7 1.5-.3 6.3 1.1 1 .2 4.7-9.8 3.2-1v1.9l-1.5 5.4-.3 3.1 1.7 1.8 1.5 1.7v3.4l-2.8-1.1-2.5-.9-4.1.6-5.1.8-2.7-1zM268.4 219.7l3.1 9.1 3 1.2 4-1.7 2.6.9 4.1-1.2 3.9 1 3.7-.2 2.4-1.5-24.7-29.9v1.9l1 4.1 1.2 6.1-.1 9.8-3.4-1.8z"/>
    <path d="m261.2 220.8 1.2-2.3.8-1.3 3 2.2.5.4c.4 0 1.3-1.2 1.9-2.7l.6-1.2 2.2 2.2c.7 1 1 .4 1-2.4v-2.8l-1-1-1.2-.8-.6 1.4c-.7 1.7-1 2.1-1.6 1.8l-.4-.7-2.8-2.8-.4.8c-.3 2.2-1.5 4.1-2 3.4l-3-2 .1 2.7.5 4.3a6 6 0 0 0 .3 1.8l.9-1Zm-8-5c-.4 1-.8 2-1.4 2.8-.2 0-.2 0-.8-2.4l-.7-2-1.5 1.3-1.5 1.7-.5-1.7c-.5-2.2-.5-2.5-.7-2.5l-1.8 1.2-1.9 1.2a178.2 178.2 0 0 0 3.1-16.1c.3-2.1.6-2.4 1-1.5h1.1c.4-1.1 1.3-3.2 1.6-3.3.3-.2 2 1.4 3.7 3.8 1.4 1.8 1.7 2.5 1.1 3-.4.5-.4.5-1-1.3l-.5.3c.5 2 .4 2.6-.2 3.5l-1 .8-.4-4.7-.1-.7c-.3 0-.5-.4-1-2.5l-.6-.2.2 2 .4 1.4-1.1 1.3-1.3 1.1-.2-1.2-.3-1.2-.4 1c0 1.1.4 3.3.7 3.3l1.2-1.5 1.3-1.5c.2 0 .5 1.2.5 2.8l.2 1.8c.1.6.2.6 1.4-.5l1.2-1.1v1c.2 2.3.4 2.4 2.1 1.2l.8-.6-.1 1.5c-.4 3-1.3 5.9-2.6 8.6Zm-3-6c0 1.3 0 2.5.2 2.5l2.7-2h-.9l-1 .7c-.2 0-.3-.8-.3-1.8 0-1.5 0-2-.3-2s-.4.5-.4 2.6Zm-3.5 0c.3.4.8.2 1.8-.8l.8-1.2-.8.4h-1.2l-1.2-4c-.4-.1-.4.6 0 2l.4 2.3.2 1.4Zm16.8 2.7.2-1.9c0-1-.1-1.2-1.1-2.3l-1.4-1.2-.4 1-1.2 2-.8 1.2c0 .3.6.6 2.4 2 1.6 1 1.8 1 2.3-.8Zm5.8-1.1-.8 1.5-1.6-1.4-1.7-1.5-.3-1.6.4-1.4-.2-.9-.7 1.2-.4 1.3-1.7-1.5-1.8-1.5-.2 1.2-.6 2c-.8 1.3-1 1.2-1.4-.6-.8-4.2-2-8.2-3.8-12-1-2.2-3.1-5.6-3.2-5.1.2.8.4 1.5.8 2.2 1.8 4.2 1.6 3.8 1 3.5-1.2-.7-5.8-5.9-5.8-6.6l1.2.5.8.3c.2 0 0-1-.1-2.2a261 261 0 0 0-.5-3.3l-.4-1.2c-.4-.1-.4.5 0 3 .1 1.2.2 2.2.1 2.3l-1.1-.6a3.6 3.6 0 0 1-1.5-2c-.7-1.8-.7-2.1 0-2.9l1.3-2 1-1.5 1 1.5 1.3 2.2.5.6.5-1.8.5-2.1c0-.8-.5-.4-.8.6l-.6 1.1c-.2 0-.9-.9-1.6-2l-1.4-2.2-.4 1c-.2 1.4-.7 2.8-1 2.8v-1.5c.1-1.2 0-1.5-.2-1.5-.3 0-.7 1.8-1 4.1v.7l-.4-.7c-.6-1.7-1.8-7.3-2.2-10.2-.4-4.5.1-9.1 1.6-13.5.4-1.3.6-1.6 1.8-2.5 1.5-1.1 3-3.1 2.7-3.5l-.8.6c-.9 1.1-1.9 2-2 1.8-.3-.2 2-3 5.7-7l1.9-2.3 1.1-1 .8 1 .7.9 2.3-2.6-1 .4-1 .9-1.2-1.9.7.1c.4.3.5.2.8-1.3.5-1.9.5-2.3 0-2.3l-.4 1c-.3 1-.6 1.8-.9 1.6l-.7-1.3-1.7-2.7c-1.6-2.1-1.8-2.7-1.8-4.4l-.2-2.3c-.5-1.4 0-1.4 1.6 0 1.8 1.6 2.4 1.6 4.3.3 1.3-.9 1.5-1 2.8-.8 1.7 0 3.2-.4 2.2-.8-1-.1-2.2-.2-3.3-.1-3.6 0-8-.5-8.9-1l-1.2-2.5c.8-1.3 4-1.3 7 0l5.5 2c1.6.4 3.5.7 6.5 1l1.1.5c0 .4-2 1.3-3 1.6l-.8.2 1.3 2c1.4 2.2 1.6 2.9 1 4l-1 .4-2.5-1.6-.4 1.1v1l-1.3-.8c-1.6-1.2-1.8-1.2-2 .2-.1 1.4-.4 1.6-1 .8-.8-1-1.2-.5-.5.5l.4 1.7.3.9 1.5-3.2.2-.6 1.9 1.6.6.7.7-2.1.6-.6.4.2.9 1.2.8.9.7-1c.7-1.3.9-1.2 1.2.6.2 1.1.1 1.2-.9 2.3l-1.2 1.2-.9-.6-1.5-1.1-1-.5-.3.7-.7 1.2h.8l1.2-.7 1.1 1 1.5.6 1.2-1c.8-.8 1-.8 1 .2 0 1.4-2.4 6.3-3 6l-.3-1c-.4-1.7-1.1-3.8-1.4-3.7l-.5 1.3c-.5 1.2-1.5 3-1.8 3-.1 0-.6-1-.9-2.2a36 36 0 0 0-.9-2.4l-.9 1c-1.6 2.6-2.4 3.6-2.6 3.6l-.9-1.2-.7-1.2-1 1.2-2.3 2.6-1.5 1.3.4 2.4.4 2.4-.8.8c-1.2 1.3-2 2-2.4 1.9l-.2-1-.4-.9c-.3 0-.4.4-.4 1.8l.2 1.7 3.8-3 1-.6.9 2.1.3.6c.3.3 2-1 3.6-2.6 1.3-1.3 1.4-1.4 1.7-1l.7 2 .5 1.8 2.6-2.7.4-.6 1 1.7c.3.8.7 1.5 1.2 2.1h1.3l.7-.3v3c0 1.7.1 4.5.3 6.3.3 2.9.2 3.4-.2 4.8l-.6 1.6c-.2 0-1-2-1.5-3.6-.3-1.8-.9-2-.8-.6.3 2 1.7 5.2 3 6.2.3.3.3.1.4-1l.1-1.8c.2-.5.3-.2.5 1l1 4.2c1.1 4 1.1 4 .8 4-.4 0-2.3-2.2-2.9-3.5l-.7-1.4-.9.7-1 1.6-.6.9c-.3 0-1-1.4-1.2-2.4l-.9-.4 2.3 4.4.5-.3 1.4-3.3.3.3c0 .5 2.1 3 3.3 4 1.2 1 1.3 1.2 2 3.2l.5 2.3c-.2.1-2.2-2-3.2-3.4-.7-1.1-1.4-1.6-1.4-1 0 .5 1.8 2.7 3.7 4.6 2 2 2.1 2.2 3.5 5.4 2.1 5 2.7 6.7 2.5 6.9h-.3c0-.2-1-1.6-2.2-3.2-1.2-1.5-3.1-4.1-4.2-5.8-2-2.8-2.6-3.7-2-2.5a66.7 66.7 0 0 1 4.1 16.8c.2 2.5.2 2.4-1.4 1l-.8-.6-.5 1.6Zm-.2-2.6-1-1.7-.7-1.2c0-.6.5-.3 1.3.8.7 1.1.8 1.1 1 .6l.1-1.5c0-1 .5-1.3.7-.3l-.7 3.7-.7-.4Zm-4.9-5.2 1.4.8c.2 0 .3-.6.5-1.7l.2-1.8 1 .6 1.6.5-1.3-1.4c-1-1.1-1.2-1.2-1.5-.8l-.7 2-.5 1.4c-.4 0-2-1.7-2.5-2.7-1.2-1.9-1.2-2-1.5-1l-.3 1.5-.6 1.4-.9-.8-.8.1 2.3 1.7c.4 0 .6-1 .6-2 0-.9.3-.8 1.2.4l1.8 1.8Zm1-5.6-1.7-3.3c0-.7.5-.4 1 .7.7 1.5 1.3 1.7 1.3.5 0-1.1.4-2.3.8-1.9l-.1 1.5-.2 2.1c0 1-.4 1.1-1.1.4Zm-8.4-1-1-1.4-.3-.6-.1-1.1.9 1.2c1 1.5 1.4 1.4 1.2-.3-.1-1.3.2-1.9.6-.8.3.8.2 2.1 0 3.4l-.4 1-1-1.3Zm3.2-.2-1.1-2.5c0-.5 0-.5.6.5l1 1.2.6-1 .9-.5-.6 1.7-.6 1.3-.8-.7Zm-7-5.6 1.7 1.4.2-2c0-1 .2-2 .3-2l1.3 1c1.1 1.4 2.3 2.4 2.6 2a8 8 0 0 0 .5-2c.2-1 .4-1.8.6-1.8.5.6 1 1.3 1.3 2 .4.6.8 1.3 1.3 1.8l.7-1 .7-1.3.8 1.1c.4 1.2 1 1.6 1 .8l-.5-1.2-.6-1.6-.6-1-.7 1.2c-.7 1.9-.8 1.8-2.3-.6a8.4 8.4 0 0 0-1.4-2.2c-.2 0-.5 1-1 3.9l-.4 1c-.4 0-2.2-2.2-2.9-3.4l-.7-1.2-.8 3.9-.2.9c-.4 0-2.1-2.1-2.7-3.2l-1-.6c0 .5 1.6 2.8 2.9 4Zm3.8-6.1c-1.7-2-3-4-3-4.9 0-.8.6-.3 1.3 1.3.7 1.5 1.6 2.5 2 2.5l.7-1.7c.6-2 .8-2.6 1.1-2.4l-.3 1.8-.6 2.9-.3 1.1-.9-.7Zm2.4-7.6a9.7 9.7 0 0 1-2.3-4.2c-.2-1.3.4-1 .8.3s1.3 3 1.7 3.1l.5-.3c.5-1.4 2-4.2 2.3-4.2.4 0 .4 0-.5 1.9l-1.2 3-.4 1.4-.9-1Zm-7.6-.3c-1.3-2.2-2.2-5.5-1.3-4.7l.4.8 1.2 2.8.5-.6c.8-2 1.6-3.6 2-3.6.4 0 .4 0-.5 1.9l-1 3-.6 1.3-.7-1Zm-6-.6c-1-.9-2.3-3.3-2.3-3.9 0-.6.6-.1 1.3 1.4 1 1.5 1.3 2 1.7 2 .4-.5.7-1.1 1-1.8.4-1 1-1.8 1-1.8.5 0 .6-.1-.4 2.1l-1 2.4c0 .7-.4.6-1.3-.4Zm2.8-6.8c-.8-.8-1.6-3.1-1.9-4.8l-.2-1.8c.5-.3.7.4 1 1.9.2 1.6 1.1 3.8 1.4 3.5l.9-1.7c.7-1.8 1.4-3 1.8-2.7l-.5 1.3-1.1 2.8c-.7 2-.9 2-1.4 1.5Zm6-.8c-1.3-1.9-2.3-5.4-1.6-5.4l.6 1.3c.3 1.5 1.4 3.9 1.7 3.9l.5-1c.4-1.1 1.7-3.7 2.2-4.2.8-1 .6 0-.3 1.8a21 21 0 0 0-1.5 3.4l-.6 1.4-1-1.2Zm7.2 0c-1.5-2.5-2.3-5.6-1.7-5.8l.4.2 1.6 4.7c.5.4.5.3 1.3-1.2.7-1.7 1.4-2.5 1.7-2.2l-.3.8c-.7 1.1-1.3 2.4-1.6 3.7l-.4 1-1-1.2Zm-6.7-29.5c-1.4-2.1-1.8-2.8-1.5-3 .2-.2.6.3 1.3 1.4l1 .5c.3 0 .4 0 .4 1.1l-.2 1.3-1-1.3Zm7.8-3.3-.7-1.2.7.2h.5l.4-.3.1 2-1-.7Zm-3.7 0-1.3-.9.3-.7c.7.4.7.3.2-.7-.5-1 0-1.2.5-.3l1 1.5.7 1.3-1.4-.1Zm-3.8 69 .6-1.3-.9-2.2c-.6 0-1 1.3-1 2.8 0 1.9.2 2 1.3.8Zm-7.3-9.9.8-1.5-2.1-2.2-.2 4.3.6.9.9-1.5Zm18.1-34.7-.8.6c-.6 0-1.5-1.7-2-3.5l-.3-1.2 1-1.2 1.1-1.3 1 2c.8 1.5.9 2 .8 3l-.8 1.6Zm-11.4-1.5c-1 .9-1.7 1-1.7.4l-.5-1.2-.5-1.1 1.3-1.9 2-2 .5-.8 1.6 3.2c0 .5-1.4 2.3-2.7 3.4Zm5.8 0-.6.5-1.4-3.7 1.2-1.6 1-1.3c.3 0 1 1.8 1.2 2.9.1 1-.2 2-1.4 3.2Zm-7.1-4.8c1.9-2.2 2.2-2.7 2-3.7-.4-1.7-.5-1.7-2.6.5-2.2 2.2-2 2-1.6 4.5.1.9.3.7 2.2-1.2Zm14.6-2 .5-3.4v-.6l-.6.7-.6 1-1 1.2-.9 1.1.6 1.6.8 2c.4.6.6-.2 1.2-3.6Zm-4.3 2.3c1.5-1.8 1.6-2.2 1.2-4-.5-2.7-.7-3-1.4-1.6l-1.4 1.8-.8 1 .6 1.9c.3 1 .7 1.9.9 1.9l1-1Zm-4-1.6c1-1.8 1.1-3 .6-4.6l-.6-1.2c-.2 0-.7.5-1.4 1.7l-1.1 1.6-.8 1.1.8 1.7c.8 1.5.9 1.7 1.3 1.3l1.2-1.6Zm-9.1-16-.4-.8-1.3-.9c-2-.2-5.7.3-5.7.8 0 .4.7.5 3.7.8l3.2.4.5-.2Zm-.7-3.9c-.7-2.2-3-3.5-5.3-2.9l-1.8.7-1.4 2.8v.7l1.9-.2c1.3 0 2.6 0 3.9.3 2.7.4 3 .2 2.6-1.4Zm-3.4-.7.5-.7c1.2.4 1.5 1.5.6 1.5l-1-.8Zm8.8 1c1.3-.6 1-1.6-.2-1.2h-2.3c0 1.1 1.3 1.7 2.5 1.2ZM193 219.2l-1.7 1.7-.8-.1 1.5-7.2 2.5-10.3 1.7-7 1.5-6.3c1-4 1-4.5 1.4-4.5l3.9-2 .9-.6-.9 5c-3.5 17.6-6.8 27.6-10 31.3Zm7.8-3c1.6-1.9 3.7-6.9 5.1-12.4 2-7 4.4-21 4.7-26 .1-1 0-1-.6-1-1.4.1-2.3.4-2.5.8l-.3 2a521.3 521.3 0 0 1-7.6 33.5l-1 4.4c0 .6 1.2-.1 2.2-1.3Zm4.8-2c2.3-2 4.3-6 6.3-13.1 1-3.6 2.7-12.1 3.5-17.5l.9-4.6.2-1.8c0-.4-1-.4-2.2 0-1.1.3-1.2.4-1.8 4.3a289 289 0 0 1-6.5 26.6c-2.2 7.6-2.2 7.6-.4 6Zm7.4-3.8c1.5-1 2.4-2.5 3-5l.8-3c1-3.5 4.5-19.2 5.1-23.2v-1.6h-2.2l-2 .2-.3 1.3c0 .7-.3 2.2-.5 3.3l-2.6 13.6-3.2 14-.2 1.1c0 .3.9 0 2.1-.7Zm7-5.3c-1.1 1.3-1.4 1.3-1.1-.1a338 338 0 0 1 4-23.8c.6-2.5.7-2.7 1.2-2.8l2-.6c1.5-.5 2.2-.4 2.2.4 0 1.2-1.3 7.6-2.6 12.6A39 39 0 0 1 220 205Zm9.1-11.2a30.4 30.4 0 0 0 6.3-12.9l-1.3-2.8-4.5 1a56 56 0 0 0-2.5 15.2c0 1 0 1.1.4.9l1.6-1.4ZM241 182c.5-1.5.6-2.7 0-3.3-.2-.4-.2-.4-1.2.1-.8.5-1 .8-1.3 2.1-.4 1.7-.7 5.7-.3 6 .2.3 2-3.1 2.8-5Zm-39 .4c1.3-1 2.4-2.2 3.1-3.5.6-1 1-3.1.7-3.4l-1.5-.1h-1.3l-.2 1.4c-.2 1.2-.5 2.4-1 3.6l-.7 2.2 1-.2Zm-1-7.8a25 25 0 0 1-3 5.6s1.7-7.1 3.5-13.5c.8-3.2.9-3.3 2.3-4.7l2.3-2.6 1-1c.5 0-3.4 10.6-6 16.2Zm36.6 2.8 3.2-1.6.2-6.8h-1c-.9.2-1 .4-1.5 1.6l-1.3 2.7c-1.2 2.2-1.7 4.6-.7 4.4l1.1-.4Zm-4.1-2-2.7.7 1-4.1c1.1-3.5 1.3-4 2.2-4.8l2.3-.9 1.2 2.5c0 1.5-2.6 5.8-4 6.6Zm-6 .2c.8-.3 2.1-1.7 2.7-3.1.6-1.3 1.4-4 1.4-5l-1-2.3-1.4.4-1.2.4-.7 3c-2 7.6-2 7.4.2 6.6Zm-4.6-.3c1.1-.7 2.4-3.3 3.2-6.5.8-3.2.8-3.5 0-4.9l-1.3-1c-.9 0-1.7 1-2.3 2.9-1.1 4-2.5 9.4-2.4 9.7l2.8-.2Zm-4.8-1.1c1-1.2 1.7-2.7 2.3-5.8.9-3.6.9-4.1 0-5l-.6-1.6-.6-1.1-2 .9c-.5.7-1.7 4.7-2.5 8.4l-.5 2.4c-.5 1.6.2 2.7 2 2.7 1 0 1.2-.1 1.9-1Zm-6.3-1c-1.3 1.7-2.4 1.5-2.7-.7a27 27 0 0 1 1.5-8.4l1.3-5.1.8-1.1 2 .4.7 1.4.8 1-.3 1.6c-1.2 5.7-2.2 8.5-4.2 11Zm-5.6-1.6-1.4.8.5-1.7c.3-.8.7-2.5 1.2-3.7l2.2-6.8c1.2-3.6 1.5-4.4 2-4.5 1-.1 1 .5.3 3.7-1.6 6.1-3 9.7-4.8 12.2Zm35.3-6.9-1 .7c-1.1 0-2.2-.4-3-1.2-.7-1-1-.9-2.2.2l-1.4.8-2-1.3c-.5-.8-.5-.8-2.2-.8-1.3 0-1.8-.2-2.1-.6-.5-.5-.6-2-.2-3.3.5-1.4.3-2-.8-2.8-1.9-1.4-1.8-3 .2-6 1-1.3 1-2 .2-2.2l-1.3-2 1.6-3c.8-.9.7-1.3-.6-1.8l-.6-1.3.3-1.8-.2-1c-.5-.4-1.2-.1-2.7 1a6.7 6.7 0 0 1-4.8 1.8c-1-.2-1.1-.1-2.6 1.1-2 1.6-5.4 3.4-8.2 4.4-3.1 1-3.4.9-1-.7a28 28 0 0 0 6.2-5 25 25 0 0 1 10-6.2c1.4-.3 2.8-.4 4.2-.4 2.3 0 2.8.1 3.8.6 4.6 2.3 4.9 6.9.8 14.7-1.3 2.6-1.4 2.8-1.4 4.4 0 1.5.2 2 .7 3 1.4 2.4 4 3.4 7.8 2.9 2.3-.4 3.4-.2 3.4.6l-.9 5.2Zm-18.1-3.5c-1.4 1.2-2.3 1-2.3-.5l.8-1.5c1-1 1.3-1 2.2-.2.8.7.6 1-.7 2.2Zm-21.6-.6c2.2-1.3 4-3.2 5.2-5.3l.8-1.4-.5-1c-1-1.9-1.1-1.9-2.1 0-1.4 2.9-4.1 5.7-5.6 8.3-.3.6.6.4 2.2-.6Zm19-2.1 2-1.4.6-1.5-.5-1-6.9 3.2.4.9c.5.6.6.7 1.9.6l2.5-.8Zm-4-3c-2.4 1-4 .8-4.2-.2-.3-1 0-1.4 2.5-3l4.7-3.5 2.7-1.7.6.6 1 1.4.6 1c0 .4-2.5 2.6-4.3 3.7-1 .7-2.3 1.3-3.5 1.8Zm-2.6-5c2.6-1 9.8-5.6 9.8-6.2l-1.1-1.5-1-1.2-2.3 1a50 50 0 0 0-9.2 5.5l-1.7 2.6c0 .8 3.4.5 5.5-.3Z"/>
    <path d="m321.7 221-1.9-.9c-2-2-3.5-4.8-5.4-10.3-1.5-4.4-4.4-16.5-5.4-22.2l-.6-3c-.3-1.3-.3-1.6 0-1.6l.5.3 3.3 2c1 .3 1-.2 3.5 10.6l4.6 18.8 1.4 6.3Zm-8.6-5.2c-2.7-9.6-6-24-7.9-34-.8-4.8-.7-4.5-1.7-4.8l-1.4-.3-.7.2c-.2.3.3 4.6 1.6 11.9 2.4 14.4 5 23 8.2 27 .8 1.3 2 2.2 2.2 2 .1-.2 0-1-.2-2Zm-5.2-1.2a271.2 271.2 0 0 1-7.8-31l-1.3-6-1.3-.4c-1.5-.6-1.8-.5-1.8.5 0 2.1 2.4 15.4 3.8 21a50 50 0 0 0 5.2 13.5c1.1 1.6 3.7 3.4 3.2 2.4Zm-7.1-5.5-.7-2.6c-1-3.9-4.8-22.3-5.5-27.7l-.1-1-2.2-.3-2.3.1c-.4.3 1.7 10.2 4.8 23 1.6 6.8 1.9 7.4 2.8 8.5l3.4 2c0-.6 0-1.3-.3-2Zm-7.7-4.7v1.7c-1 0-3.7-5-5-9.1a147 147 0 0 1-4.3-18.2c-.2-1 0-1.1.3-1.3l1.7.3 2 .6.9 1.1c.6 2 1.7 7.6 2.4 11.7 1.5 9.1 1.8 11.7 2 13.2Zm-8.2-12c-.5-5-1.5-11.2-2.2-12.7-.4-.7-.7-.8-2.4-1.2-.8-.2-1.5-.3-2.3-.3l-.9 1.5-.7 1.3.8 2.4c1 2.7 2.2 5.4 3.7 7.8 1.1 1.9 3.7 4.5 4 4.1v-3Zm-10.8-7.7-.1 2.4c-.3.3-3-5-3.8-7.6l-.5-1.8 3.4 1.7c.5.7 1 3 1 5.3Zm36.9-2-.8-2.4-1-3.5-.1-1.3h-1.4c-1.4-.1-1.4-.1-1.4.6l1.2 3.7c1 1.5 3.5 3.5 3.5 2.8Zm2-6.9c.7 2.4 1.1 4.3 1 4.4a75.7 75.7 0 0 1-8.9-21.6l1 .8 2.2 2.6c1 1 1.5 1.8 1.8 2.7l1 4 2 7.1Zm-36.8 1.6c.2-.5-.3-2.2-1.3-4l-1.3-2.9c-.4-1-.5-1.1-1.8-1.4l-2.2-1-1.2-.8c-.6 0 .2 4.4 1 6.1 1 2 3 3.5 5.2 4.1 1.4.4 1.3.4 1.6 0Zm5.2-1.3-.4.2-2.3-.7c-1.4-1-3.3-3.8-3.9-6-.2-.9-.2-1 .3-2.1l1.1-1.2 2.6 1.7 2.6 8.1Zm5-.9-1.2-4.9c-1-4-1-4.1-1.7-4.4-1.7-.6-2-.6-2.5.3-.7 1-.7 1.8.3 4.8s2.7 4.9 4.5 4.9l.7-.7Zm5.5.3c.1-.3-2-9.3-2.6-10.9l-1.9-1.7-2 2.7c0 1 .9 4.6 1.6 6.3.6 1.8 1.8 3.4 2.7 3.7h2.2v-.1Zm5.7-.8.5-1c0-1-2.7-11.5-3.1-12-1-1.3-2.5-1.4-2.5-.1l-1.3 2.3c-.6 0 .6 6 1.8 8.7l1.4 2 3.2.1Zm5-.9c-1.5 2.3-4.5-2.7-5.9-9.7-.7-3.2-.7-3.3-.2-3.8l.8-1.4c.5-1.2 1.4-1.5 2.3-.8.4.4.8 1.5 1.6 5 1.9 7.2 2.2 9.7 1.5 10.7Zm4.7-1.4-1-.2c-1.4-1.6-3-5.3-4.3-9.7-1.6-5.8-1.7-6.4-.8-6.6l.8-.1 5.3 16.6Zm-33.8-7.3-1.5.4c-1.3 0-1.6 0-2-.4-2-1.5-1.7-5.2.2-6.1.6-.3 1.1-.3 3 0 3.7.4 6-.4 7.7-2.8.6-.9.6-1.2.6-3 0-2 0-2-1.4-4.7-1.9-3.9-2.6-6-2.6-8.6 0-1.5 0-2.2.5-3a6.1 6.1 0 0 1 3-2.9c1.1-.5 1.6-.6 3.8-.6 3.2 0 5.2.5 7.6 1.8 2.7 1.3 5 3 7 5.2 1.8 1.7 3.6 3.2 5.6 4.6 2.5 1.6 2.5 1.7-.1.9-3-1-5.8-2.4-8.3-4.3-2.1-1.5-2.2-1.6-3.2-1.5-1.4.3-3.7-.5-4.7-1.5-1-.9-1.9-1.5-2.3-1.5-.6 0-.8 1-.5 2.2.5 1.4.4 1.9-.7 2.3l-.5 1.5.9 1.2c1 1.5 1 2.6-.3 3.8l-.9 1 1 1.4c1.9 3 2 4.5.1 6-1.2 1.2-1.3 1.4-.8 2.8s.5 2.6 0 3.2c-.5.5-.8.7-2.3.7-1.7 0-1.7 0-2.1.6-.5 1-1.4 1.6-2.1 1.4l-1.5-.9c-1-.9-1.3-.9-2 0l-.9.5-.3.3Zm17.3-3.4-.7.5-2.4-1.9-.1-.9.9-.6c.4-.5 1-.3 2 .8.8 1 1 1.6.3 2Zm21.5-.7-1.3-1.7a53 53 0 0 1-4.2-6.5l-.8-1.5-.7.8-.6 1c-1.2.8 2.6 6 5.8 7.8l1.7.7v-.6Zm-16.6-2 .4-.8-6.8-3.7-.5 1-.3.9 1.1 1c2.1 1.8 5 2.5 6.1 1.6Zm3.3-3c-2.1.8-7-1.3-10.4-4.5l-1.4-1.3.8-1 1-1.5.5-.5a330 330 0 0 0 7.6 5.2c2.2 1.5 2.4 1.6 2.4 2.4l-.5 1.2Zm3.7-4.8.5-.8-.7-1.5c-.9-1.2-5.4-4-9.2-5.8-3.2-1.5-2.8-1.5-4.1 0l-1.2 1.2.7.7c1.2 1 5.7 4 7.9 5 2.6 1.1 4.7 1.6 6.1 1.2Z"/>
  </g>
</svg>
